<?xml version="1.0" encoding="utf-8"?>
<!-- Generator: Adobe Illustrator 19.1.0, SVG Export Plug-In . SVG Version: 6.00 Build 0)  -->
<svg version="1.1" id="Layer_1" xmlns="http://www.w3.org/2000/svg" xmlns:xlink="http://www.w3.org/1999/xlink" x="0px" y="0px"
	 viewBox="226.1 379 565.5 91.2" style="enable-background:new 226.1 379 565.5 91.2;" xml:space="preserve">
<style type="text/css">
	.st0{fill:#0079AF;}
	.st1{opacity:0.25;clip-path:url(#SVGID_3_);fill:#231F20;enable-background:new    ;}
	.st2{fill:#FFFFFF;}
</style>
<g>
	<g>
		<g>
			<path id="SVGID_1_" class="st0" d="M429.5,379c20.3,0,36.8,16.5,36.8,36.8c0,27.8-30.7,39.1-36.8,54.4
				c-7.8-15.4-36.8-28.9-36.8-54.4C392.7,395.5,409.2,379,429.5,379z"/>
		</g>
		<g>
			<defs>
				<path id="SVGID_2_" d="M429.5,379c20.3,0,36.8,16.5,36.8,36.8c0,27.8-30.7,39.1-36.8,54.4c-7.8-15.4-36.8-28.9-36.8-54.4
					C392.7,395.5,409.2,379,429.5,379z"/>
			</defs>
			<clipPath id="SVGID_3_">
				<use xlink:href="#SVGID_2_"  style="overflow:visible;"/>
			</clipPath>
			<polygon class="st1" points="449.9,433 417.8,465 382.3,429.5 409.1,402.8 414.4,411.5 423.1,402.8 433.6,413.3 444.1,402.8 			
				"/>
		</g>
	</g>
	<g>
		<path class="st2" d="M409.1,433v-30.2h6.4V433H409.1z"/>
		<path class="st2" d="M449.9,433h-8.1l-13.1-22.8h-0.2c0.3,4,0.4,6.9,0.4,8.6V433h-5.7v-30.2h8.1l13.1,22.6h0.1
			c-0.2-3.9-0.3-6.7-0.3-8.3v-14.3h5.8L449.9,433L449.9,433z"/>
	</g>
</g>
<g>
	<path class="st2" d="M231.8,460.1c-2.2,0-4.1-0.2-5.7-0.7v-8c1.7,0.4,3.2,0.6,4.5,0.6c2.1,0,3.6-0.7,4.5-2s1.4-3.4,1.4-6.2v-42.6
		h9.6v42.5c0,5.3-1.2,9.3-3.6,12.1C240.1,458.7,236.6,460.1,231.8,460.1z"/>
	<path class="st2" d="M298.9,424c0,7.5-1.9,13.3-5.6,17.3s-9.1,6.1-16,6.1s-12.3-2-16-6.1c-3.7-4-5.6-9.8-5.6-17.4
		s1.9-13.3,5.6-17.3s9.1-6,16.1-6s12.3,2,16,6C297,410.7,298.9,416.4,298.9,424z M265.7,424c0,5.1,1,8.9,2.9,11.5
		c1.9,2.6,4.8,3.9,8.6,3.9c7.7,0,11.5-5.1,11.5-15.3c0-10.2-3.8-15.3-11.5-15.3c-3.8,0-6.7,1.3-8.7,3.9
		C266.7,415.1,265.7,418.9,265.7,424z"/>
	<path class="st2" d="M308.3,401.3h14.1c6.4,0,11.1,0.9,14,2.7c2.9,1.8,4.4,4.7,4.4,8.7c0,2.7-0.6,4.9-1.9,6.7
		c-1.3,1.7-3,2.8-5.1,3.1v0.3c2.9,0.6,5,1.8,6.2,3.6c1.3,1.8,1.9,4.1,1.9,7c0,4.1-1.5,7.4-4.5,9.7c-3,2.3-7.1,3.5-12.2,3.5h-17
		L308.3,401.3L308.3,401.3z M317.9,419.3h5.6c2.6,0,4.5-0.4,5.7-1.2c1.2-0.8,1.8-2.1,1.8-4c0-1.7-0.6-3-1.9-3.7
		c-1.3-0.8-3.3-1.1-6-1.1H318v10H317.9z M317.9,427v11.8h6.3c2.7,0,4.6-0.5,5.9-1.5s1.9-2.6,1.9-4.7c0-3.8-2.7-5.7-8.1-5.7h-6V427z"
		/>
	<path class="st2" d="M377.8,434.1c0,4.1-1.5,7.3-4.4,9.7c-3,2.4-7.1,3.5-12.3,3.5c-4.8,0-9.1-0.9-12.9-2.7v-8.9
		c3.1,1.4,5.7,2.3,7.8,2.9c2.1,0.6,4.1,0.8,5.8,0.8c2.1,0,3.7-0.4,4.9-1.2c1.1-0.8,1.7-2,1.7-3.6c0-0.9-0.2-1.7-0.7-2.4
		c-0.5-0.7-1.2-1.4-2.2-2s-2.9-1.7-5.9-3.1c-2.8-1.3-4.9-2.6-6.2-3.8s-2.5-2.6-3.3-4.2c-0.8-1.6-1.2-3.5-1.2-5.6
		c0-4,1.4-7.2,4.1-9.5c2.7-2.3,6.5-3.4,11.3-3.4c2.4,0,4.6,0.3,6.8,0.8c2.1,0.6,4.4,1.3,6.7,2.4l-3.1,7.5c-2.4-1-4.4-1.7-6-2.1
		c-1.6-0.4-3.1-0.6-4.7-0.6c-1.8,0-3.2,0.4-4.2,1.3c-1,0.8-1.5,2-1.5,3.3c0,0.8,0.2,1.6,0.6,2.2c0.4,0.6,1,1.2,1.9,1.8
		c0.9,0.6,2.9,1.7,6.1,3.2c4.2,2,7.2,4.1,8.7,6.1C377,428.7,377.8,431.2,377.8,434.1z"/>
</g>
<g>
	<path class="st2" d="M484.1,446.7v-45.4h9.6v45.4H484.1z"/>
	<path class="st2" d="M532,434.1c0,4.1-1.5,7.3-4.4,9.7c-3,2.4-7.1,3.5-12.3,3.5c-4.8,0-9.1-0.9-12.9-2.7v-9
		c3.1,1.4,5.7,2.3,7.8,2.9c2.1,0.6,4.1,0.8,5.8,0.8c2.1,0,3.7-0.4,4.9-1.2c1.1-0.8,1.7-2,1.7-3.6c0-0.9-0.2-1.7-0.7-2.4
		s-1.2-1.4-2.2-2s-2.9-1.7-5.9-3.1c-2.8-1.3-4.9-2.6-6.2-3.8c-1.4-1.2-2.5-2.6-3.3-4.2s-1.2-3.5-1.2-5.6c0-4,1.4-7.2,4.1-9.5
		s6.5-3.4,11.3-3.4c2.4,0,4.6,0.3,6.8,0.8c2.1,0.6,4.4,1.3,6.7,2.4l-3.1,7.5c-2.4-1-4.4-1.7-6-2.1s-3.1-0.6-4.7-0.6
		c-1.8,0-3.2,0.4-4.2,1.3c-1,0.8-1.5,2-1.5,3.3c0,0.8,0.2,1.6,0.6,2.2c0.4,0.6,1,1.2,1.9,1.8c0.9,0.6,2.9,1.7,6.1,3.2
		c4.2,2,7.2,4.1,8.7,6.1C531.2,428.7,532,431.2,532,434.1z"/>
	<path class="st2" d="M557.8,446.7h-9.6v-37.4h-12.3v-8h34.3v8h-12.3v37.4H557.8z"/>
	<path class="st2" d="M604.9,446.7l-3.3-10.8H585l-3.3,10.8h-10.4l16-45.6h11.8l16.1,45.6H604.9z M599.3,427.8
		c-3-9.8-4.8-15.3-5.1-16.6c-0.4-1.3-0.7-2.3-0.8-3c-0.7,2.7-2.6,9.2-5.9,19.7h11.8V427.8z"/>
	<path class="st2" d="M661.3,446.7h-12.2l-19.8-34.4H629c0.4,6.1,0.6,10.4,0.6,13v21.4H621v-45.4h12.2l19.7,34h0.2
		c-0.3-5.9-0.5-10.1-0.5-12.5v-21.5h8.7L661.3,446.7L661.3,446.7z"/>
	<path class="st2" d="M672.7,401.3h14.1c6.4,0,11.1,0.9,14,2.8c2.9,1.8,4.4,4.8,4.4,8.7c0,2.7-0.6,4.9-1.9,6.7
		c-1.3,1.7-3,2.8-5.1,3.1v0.3c2.9,0.6,5,1.8,6.2,3.6c1.3,1.8,1.9,4.1,1.9,7c0,4.1-1.5,7.4-4.5,9.7c-3,2.3-7.1,3.5-12.2,3.5h-17
		L672.7,401.3L672.7,401.3z M682.4,419.3h5.6c2.6,0,4.5-0.4,5.7-1.2c1.2-0.8,1.8-2.1,1.8-4c0-1.7-0.6-3-1.9-3.7
		c-1.3-0.8-3.3-1.1-6-1.1h-5.1L682.4,419.3L682.4,419.3z M682.4,426.9v11.8h6.3c2.7,0,4.6-0.5,5.9-1.5c1.3-1,1.9-2.6,1.9-4.7
		c0-3.8-2.7-5.7-8.1-5.7h-6V426.9z"/>
	<path class="st2" d="M752.5,401.3v29.4c0,3.4-0.8,6.3-2.3,8.8s-3.7,4.5-6.5,5.8s-6.2,2-10.1,2c-5.8,0-10.4-1.5-13.6-4.5
		c-3.2-3-4.8-7.1-4.8-12.3v-29.3h9.6V429c0,3.5,0.7,6.1,2.1,7.7s3.7,2.5,7,2.5c3.1,0,5.4-0.8,6.9-2.5c1.4-1.6,2.1-4.2,2.1-7.8v-27.8
		h9.6V401.3z"/>
	<path class="st2" d="M763.6,446.7v-45.4h9.6v37.5h18.4v8h-28V446.7z"/>
</g>
</svg>
