<svg width="289" height="355" viewBox="0 0 289 355" fill="none" xmlns="http://www.w3.org/2000/svg">
<mask id="mask0_540_8433" style="mask-type:alpha" maskUnits="userSpaceOnUse" x="0" y="0" width="289" height="355">
<rect x="0.5" y="0.5" width="288" height="354" rx="3.5" fill="white" stroke="#0079AF"/>
</mask>
<g mask="url(#mask0_540_8433)">
<path d="M152.769 -49.3325C114.344 -66.0921 100.671 -47.1067 96.4105 -56.0253L91 -71.3855L391.85 -72.1862L405.676 375.526C313.651 373.128 195.849 369.698 192.862 376.967C192.824 377.638 192.808 377.755 192.804 377.26C192.803 377.161 192.822 377.063 192.862 376.967C193.551 364.68 201.46 166.733 276.078 150.773C354.769 133.942 378.815 102.471 374.735 84.1069C370.654 65.7428 363.048 47.7755 317.212 54.0361C280.544 59.0445 262.095 45.1638 257.454 37.5975C232.771 -4.88312 200.8 -28.383 152.769 -49.3325Z" fill="#0079AF"/>
</g>
</svg>
