<svg width="101" height="107" viewBox="0 0 101 107" fill="none" xmlns="http://www.w3.org/2000/svg">
<path d="M77.8125 62.875L99.6875 61.875C102 46.5 96 29.5 87.1875 23.875L71 39C73.9375 40.5 80 50.5 77.8125 62.875Z" fill="#0079AF"/>
<path d="M85.125 12.5C76.6875 5.3125 66.375 0.9375 55.125 0.3125V22.1875C60.4375 22.8125 65.4375 24.6875 69.5 28.125L85.125 12.5Z" fill="#FBB13C"/>
<path d="M72 74.5L87.5 90C95.5 80 99.0625 71.375 100 60.125H78.125C77.5 65.4375 75.4375 70.125 72 74.5Z" fill="#0079AF"/>
<path d="M50 85.125C34.6875 85.125 21.875 72.625 21.875 57C21.875 42.625 32.8125 30.75 46.875 29.1875V7C20.9375 8.5625 0 30.4375 0 57C0 84.5 22.5 107 50 107C62.1875 107 74 102.5 87.5 90L72 74.5C72 74.5 64.5 85.125 50 85.125Z" fill="#0079AF"/>
</svg>
