<svg width="105" height="105" viewBox="0 0 105 105" fill="none" xmlns="http://www.w3.org/2000/svg">
<path d="M82.8125 46.875H104.688C104.062 35.625 99.6875 25.3125 92.1875 16.875L76.5625 32.5C80.3125 36.5625 82.5 41.5625 82.8125 46.875Z" fill="#FBB13C"/>
<path d="M88.125 12.5C79.6875 5.3125 69.375 0.9375 58.125 0.3125V22.1875C63.4375 22.8125 68.4375 24.6875 72.5 28.125L88.125 12.5Z" fill="#FBB13C"/>
<path d="M72 72.5L87.5 88C95.5 78 99.0625 69.375 100 58.125H78.125C77.5 63.4375 75.4375 68.125 72 72.5Z" fill="#0079AF"/>
<path d="M50 83.125C34.6875 83.125 21.875 70.625 21.875 55C21.875 40.625 32.8125 28.75 46.875 27.1875V5C20.9375 6.5625 0 28.4375 0 55C0 82.5 22.5 105 50 105C62.1875 105 74 100.5 87.5 88L72 72.5C72 72.5 64.5 83.125 50 83.125Z" fill="#0079AF"/>
</svg>
