<svg width="418" height="529" viewBox="0 0 418 529" fill="none" xmlns="http://www.w3.org/2000/svg">
<g opacity="0.4">
<path opacity="0.15" d="M65.9168 88.5356C24.3991 81.4881 16.0567 103.813 9.63328 96.0042L0.436035 82.0722L291.47 5.84659L420.266 448.001C330.563 468.687 215.639 494.808 214.621 502.792C214.758 503.469 214.772 503.59 214.641 503.098C214.614 502.999 214.608 502.897 214.621 502.792C212.121 490.39 168.75 291.384 236.871 256.79C308.71 220.309 323.875 182.956 315.191 165.701C306.507 148.445 294.512 132.469 251.754 150.192C217.548 164.371 196.11 155.18 189.667 148.813C154.822 112.719 117.814 97.3451 65.9168 88.5356Z" fill="white"/>
<path opacity="0.6" d="M21.8846 72.915C20.8563 72.5115 19.6957 73.018 19.2922 74.0463C18.8888 75.0745 19.3953 76.2352 20.4236 76.6386L21.8846 72.915ZM63.4117 86.22L63.0412 88.1854L63.4117 86.22ZM190.492 149.121L189.104 150.561C189.715 151.151 190.632 151.29 191.391 150.908L190.492 149.121ZM245.127 118.389L247.009 119.064L245.127 118.389ZM131.545 151.571L133.527 151.835L131.545 151.571ZM134.345 181.829L133.053 183.355L134.345 181.829ZM224.567 189.448L224.598 187.449L224.567 189.448ZM240.824 181.56L242.798 181.884L240.824 181.56ZM247.766 152.616L246.376 151.178C246.341 151.211 246.308 151.245 246.277 151.281L247.766 152.616ZM305.691 243.86L305.936 245.845C306.56 245.768 307.111 245.402 307.425 244.857L305.691 243.86ZM236.499 241.597L236.596 239.599L236.499 241.597ZM331.329 188.71L329.65 189.796L331.329 188.71ZM279.157 294.147L280.024 295.949L279.157 294.147ZM268.89 286.3L270.533 285.161L268.89 286.3ZM243.114 258.665L242.668 260.615L243.114 258.665ZM201.488 305.483C201.33 306.576 202.087 307.59 203.18 307.749C204.273 307.908 205.288 307.15 205.447 306.057L201.488 305.483ZM20.4236 76.6386C40.2306 84.4101 47.6019 85.275 63.0412 88.1854L63.7822 84.2547C48.3575 81.347 41.3112 80.5372 21.8846 72.915L20.4236 76.6386ZM63.0412 88.1854C73.6978 90.1943 89.3976 94.1903 103.961 98.604C118.604 103.042 131.805 107.817 137.643 111.336L139.708 107.91C133.374 104.092 119.692 99.192 105.121 94.7759C90.4698 90.3355 74.6236 86.2984 63.7822 84.2547L63.0412 88.1854ZM137.643 111.336C149.77 118.645 165.047 127.374 189.104 150.561L191.88 147.681C167.502 124.184 151.925 115.274 139.708 107.91L137.643 111.336ZM191.391 150.908C200.576 146.285 213.976 139.373 225.228 133.22C230.85 130.145 235.96 127.248 239.746 124.914C241.635 123.75 243.228 122.705 244.401 121.834C244.985 121.402 245.502 120.984 245.91 120.595C246.244 120.277 246.766 119.742 247.009 119.064L243.244 117.713C243.347 117.426 243.463 117.401 243.15 117.7C242.91 117.928 242.539 118.235 242.018 118.622C240.981 119.391 239.5 120.367 237.647 121.509C233.95 123.788 228.912 126.646 223.309 129.71C212.11 135.834 198.754 142.724 189.593 147.335L191.391 150.908ZM247.009 119.064C247.307 118.235 247.403 117.263 247.03 116.27C246.67 115.308 245.962 114.574 245.131 114.01C243.536 112.927 240.972 112.125 237.369 111.479C230.058 110.168 217.332 109.319 196.243 109.082L196.198 113.082C217.286 113.319 229.714 114.17 236.662 115.416C240.188 116.049 242.031 116.741 242.884 117.32C243.278 117.587 243.304 117.726 243.285 117.674C243.254 117.591 243.297 117.565 243.244 117.713L247.009 119.064ZM196.243 109.082C175.303 108.847 161.642 106.572 152.826 105.302C148.502 104.679 145.052 104.244 142.523 104.543C141.209 104.699 139.962 105.068 138.917 105.849C137.844 106.651 137.168 107.748 136.768 109.023L140.584 110.222C140.789 109.569 141.048 109.25 141.312 109.053C141.603 108.835 142.094 108.622 142.993 108.516C144.892 108.291 147.768 108.614 152.256 109.261C161.062 110.53 174.962 112.843 196.198 113.082L196.243 109.082ZM136.869 108.765C136.374 109.807 135.906 111.438 135.429 113.535C134.941 115.68 134.41 118.469 133.826 121.927C132.658 128.847 131.263 138.538 129.562 151.306L133.527 151.835C135.227 139.075 136.615 129.441 137.77 122.593C138.349 119.168 138.865 116.463 139.329 114.422C139.804 112.334 140.194 111.087 140.482 110.481L136.869 108.765ZM129.562 151.306C128.064 162.555 127.941 169.675 128.661 174.391C129.401 179.236 131.054 181.662 133.053 183.355L135.638 180.303C134.468 179.312 133.229 177.804 132.615 173.787C131.982 169.642 132.043 162.974 133.527 151.835L129.562 151.306ZM133.053 183.355C133.649 183.861 134.441 184.228 135.216 184.516C136.032 184.819 137.011 185.098 138.11 185.359C140.312 185.881 143.144 186.364 146.424 186.812C152.992 187.709 161.517 188.485 170.724 189.134C189.147 190.432 210.429 191.228 224.536 191.448L224.598 187.449C210.556 187.23 189.347 186.436 171.006 185.144C161.831 184.497 153.406 183.728 146.965 182.849C143.74 182.409 141.053 181.946 139.033 181.467C138.022 181.227 137.215 180.992 136.609 180.766C135.963 180.527 135.696 180.353 135.638 180.303L133.053 183.355ZM224.536 191.448C227.403 191.493 231.512 191.797 234.981 190.838C236.785 190.339 238.548 189.474 239.974 187.976C241.41 186.47 242.375 184.457 242.798 181.884L238.851 181.235C238.535 183.156 237.868 184.388 237.078 185.218C236.278 186.057 235.223 186.62 233.915 186.982C231.162 187.744 227.881 187.5 224.598 187.449L224.536 191.448ZM242.798 181.884C243.211 179.371 243.301 176.859 243.351 174.447C243.402 171.995 243.412 169.675 243.635 167.343C244.071 162.778 245.309 158.352 249.255 153.951L246.277 151.281C241.601 156.496 240.144 161.82 239.653 166.962C239.412 169.484 239.401 172.006 239.352 174.364C239.302 176.761 239.214 179.026 238.851 181.235L242.798 181.884ZM249.156 154.054C253.137 150.204 259.292 147.001 266.417 145.117C273.524 143.238 281.444 142.714 288.866 144.076C296.28 145.437 303.126 148.665 308.235 154.23C313.33 159.779 316.843 167.811 317.332 179.059L321.329 178.886C320.805 166.854 317.013 157.876 311.182 151.525C305.366 145.189 297.666 141.625 289.588 140.142C281.519 138.66 273 139.239 265.395 141.25C257.809 143.255 250.979 146.727 246.376 151.178L249.156 154.054ZM317.334 178.859C316.535 192.87 316.195 221.563 303.957 242.864L307.425 244.857C320.243 222.546 320.55 192.712 321.327 179.086L317.334 178.859ZM305.446 241.875C294.785 243.192 278.404 242.677 264.185 241.793C257.103 241.352 250.603 240.824 245.684 240.396C240.826 239.973 237.391 239.637 236.596 239.599L236.402 243.594C237.097 243.628 240.338 243.946 245.337 244.381C250.275 244.81 256.811 245.342 263.937 245.785C278.136 246.668 294.862 247.212 305.936 245.845L305.446 241.875ZM236.596 239.599C236.719 239.605 237.147 239.646 237.56 240.011C238.033 240.428 238.149 240.96 238.149 241.286C238.149 241.434 238.128 241.544 238.114 241.601C238.099 241.66 238.086 241.692 238.085 241.693C238.084 241.696 238.09 241.681 238.109 241.646C238.127 241.613 238.154 241.566 238.192 241.506C238.536 240.961 239.343 239.996 240.755 238.58C243.526 235.798 248.239 231.652 255.008 226.27C268.528 215.519 290.107 199.948 320.405 180.659L318.256 177.285C287.871 196.63 266.173 212.281 252.518 223.139C245.699 228.561 240.85 232.816 237.921 235.757C236.482 237.201 235.405 238.428 234.81 239.371C234.654 239.616 234.504 239.885 234.388 240.167C234.281 240.427 234.149 240.823 234.149 241.29C234.15 241.809 234.324 242.49 234.914 243.01C235.444 243.479 236.046 243.577 236.402 243.594L236.596 239.599ZM320.678 180.45C320.494 180.619 320.387 180.529 320.657 180.565C320.951 180.604 321.525 180.786 322.387 181.371C324.11 182.542 326.582 185.051 329.65 189.796L333.009 187.624C329.804 182.668 326.986 179.66 324.634 178.062C323.458 177.264 322.298 176.749 321.189 176.6C320.056 176.448 318.878 176.678 317.983 177.495L320.678 180.45ZM329.65 189.796C333.466 195.698 340.736 206.536 346.941 216.758C350.043 221.868 352.846 226.772 354.8 230.784C355.779 232.793 356.522 234.533 356.984 235.935C357.476 237.427 357.545 238.239 357.494 238.543L361.44 239.2C361.663 237.861 361.295 236.238 360.783 234.683C360.241 233.039 359.413 231.119 358.397 229.033C356.362 224.854 353.483 219.826 350.36 214.682C344.117 204.396 336.771 193.441 333.009 187.624L329.65 189.796ZM357.494 238.543C357.494 238.542 357.494 238.544 357.493 238.546C357.493 238.549 357.492 238.553 357.491 238.558C357.488 238.568 357.484 238.583 357.478 238.602C357.466 238.641 357.447 238.695 357.417 238.765C357.356 238.907 357.262 239.091 357.122 239.32C356.84 239.782 356.418 240.356 355.837 241.042C354.676 242.411 352.989 244.1 350.815 246.053C346.474 249.953 340.332 254.782 332.931 260.036C318.133 270.541 298.426 282.656 278.29 292.345L280.024 295.949C300.39 286.15 320.29 273.915 335.247 263.297C342.723 257.99 348.996 253.065 353.488 249.029C355.73 247.014 357.564 245.19 358.888 243.628C359.55 242.847 360.111 242.1 360.537 241.403C360.946 240.732 361.31 239.977 361.44 239.2L357.494 238.543ZM278.29 292.345C277.791 292.585 277.645 292.636 277.518 292.649C277.479 292.653 277.294 292.679 276.84 292.417C275.76 291.794 273.864 289.966 270.533 285.161L267.246 287.44C270.57 292.234 272.904 294.765 274.842 295.882C275.897 296.491 276.918 296.733 277.934 296.627C278.861 296.53 279.619 296.144 280.024 295.949L278.29 292.345ZM270.533 285.161C266.962 280.009 262.624 273.495 258.097 268.048C255.828 265.318 253.465 262.799 251.072 260.818C248.697 258.852 246.166 257.311 243.559 256.715L242.668 260.615C244.41 261.013 246.374 262.122 248.521 263.899C250.65 265.661 252.835 267.975 255.021 270.605C259.404 275.879 263.606 282.188 267.246 287.44L270.533 285.161ZM243.559 256.715C242.374 256.445 240.924 256.565 239.441 256.884C237.909 257.215 236.147 257.802 234.249 258.641C230.45 260.319 225.992 263.055 221.59 266.956C212.769 274.773 204.125 287.313 201.488 305.483L205.447 306.057C207.934 288.92 216.052 277.209 224.243 269.95C228.347 266.313 232.457 263.805 235.865 262.3C237.571 261.546 239.072 261.056 240.284 260.794C241.547 260.522 242.323 260.536 242.668 260.615L243.559 256.715Z" fill="white"/>
</g>
</svg>
