<svg width="12" height="9" viewBox="0 0 12 9" fill="none" xmlns="http://www.w3.org/2000/svg">
<path d="M10.724 0.000505755C10.4019 0.00978227 10.0961 0.142565 9.87128 0.370743C7.9086 2.3144 6.11666 4.22025 4.23187 6.12218L2.01616 4.36675C1.88891 4.26614 1.74286 4.19128 1.58633 4.14645C1.42981 4.10162 1.26588 4.08769 1.10391 4.10547C0.941944 4.12325 0.785103 4.17238 0.642349 4.25006C0.499594 4.32773 0.373721 4.43243 0.271917 4.55818C0.170113 4.68393 0.0943728 4.82826 0.0490203 4.98294C0.00366789 5.13762 -0.0104081 5.29961 0.00759622 5.45966C0.0256005 5.61971 0.0753322 5.77469 0.153952 5.91575C0.232572 6.05681 0.338539 6.18119 0.465804 6.28177L3.56651 8.733C3.80564 8.92123 4.1067 9.01557 4.41191 8.9979C4.71712 8.98023 5.00497 8.85178 5.22022 8.63724C7.45067 6.42844 9.4489 4.25898 11.6283 2.10063C11.8063 1.92805 11.9276 1.70646 11.9762 1.46477C12.0248 1.22309 11.9986 0.972534 11.901 0.745793C11.8033 0.519052 11.6388 0.326652 11.4288 0.193703C11.2189 0.060755 10.9732 -0.00657086 10.724 0.000505755Z" fill="#001D29"/>
</svg>
