<svg width="30" height="30" viewBox="0 0 30 30" fill="none" xmlns="http://www.w3.org/2000/svg">
    <path d="M14.9999 6.10352e-05C6.72081 6.10352e-05 0 6.72093 0 15.0001C0 23.2792 6.72081 30.0001 14.9999 30.0001C23.2789 30.0001 29.9997 23.2792 29.9997 15.0001C30.0483 6.72093 23.3275 6.10352e-05 14.9999 6.10352e-05V6.10352e-05ZM20.6489 16.6072H14.9999C14.0745 16.6072 13.3441 15.8768 13.3441 14.9514L13.3438 7.11054C13.3438 6.18513 14.0742 5.45478 14.9995 5.45478C15.9249 5.45478 16.6553 6.18516 16.6553 7.11054V13.3443H20.6489C21.5743 13.3443 22.3047 14.0747 22.3047 15.0001C22.305 15.9255 21.5743 16.6072 20.6489 16.6072H20.6489Z" fill="#D20F9B"/>
</svg>
