<svg width="16" height="16" viewBox="0 0 16 16" fill="none" xmlns="http://www.w3.org/2000/svg">
<path d="M15.2727 8.72705C15.0798 8.72705 14.8949 8.80367 14.7585 8.94006C14.6221 9.07645 14.5455 9.26144 14.5455 9.45432V12.5183C14.5449 13.0557 14.3311 13.5709 13.9511 13.9509C13.5712 14.3309 13.0559 14.5447 12.5185 14.5452H3.48145C2.94406 14.5447 2.42885 14.3309 2.04885 13.9509C1.66886 13.5709 1.45512 13.0557 1.45455 12.5183V9.45432C1.45455 9.26144 1.37792 9.07645 1.24153 8.94006C1.10514 8.80367 0.920157 8.72705 0.727273 8.72705C0.534388 8.72705 0.349403 8.80367 0.213013 8.94006C0.0766231 9.07645 0 9.26144 0 9.45432V12.5183C0.000962608 13.4414 0.368067 14.3263 1.02076 14.979C1.67345 15.6317 2.55841 15.9988 3.48145 15.9998H12.5185C13.4416 15.9988 14.3266 15.6317 14.9792 14.979C15.6319 14.3263 15.999 13.4414 16 12.5183V9.45432C16 9.26144 15.9234 9.07645 15.787 8.94006C15.6506 8.80367 15.4656 8.72705 15.2727 8.72705Z" fill="#5E7178"/>
<path d="M4.15049 5.60494L7.27267 2.48275V11.6362C7.27267 11.8291 7.34929 12.0141 7.48568 12.1505C7.62207 12.2869 7.80706 12.3635 7.99994 12.3635C8.19283 12.3635 8.37781 12.2869 8.5142 12.1505C8.65059 12.0141 8.72721 11.8291 8.72721 11.6362V2.48275L11.8494 5.60494C11.9866 5.73741 12.1703 5.81072 12.361 5.80906C12.5516 5.8074 12.7341 5.73092 12.8689 5.59608C13.0037 5.46123 13.0802 5.27882 13.0819 5.08814C13.0835 4.89745 13.0102 4.71374 12.8778 4.57657L8.51412 0.212936C8.37774 0.076593 8.19279 0 7.99994 0C7.80709 0 7.62214 0.076593 7.48576 0.212936L3.12212 4.57657C2.98964 4.71374 2.91634 4.89745 2.918 5.08814C2.91965 5.27882 2.99614 5.46123 3.13098 5.59608C3.26582 5.73092 3.44823 5.8074 3.63892 5.80906C3.82961 5.81072 4.01332 5.73741 4.15049 5.60494Z" fill="#5E7178"/>
</svg>
