<?xml version="1.0" encoding="UTF-8"?>
<svg width="12px" height="12px" viewBox="0 0 12 12" version="1.1" xmlns="http://www.w3.org/2000/svg" xmlns:xlink="http://www.w3.org/1999/xlink">
    <title>icon/navigation/close_24px</title>
    <g id="My-Profile" stroke="none" stroke-width="1" fill="none" fill-rule="evenodd" opacity="0.34">
        <g id="JobsIn---Signup-2.4" transform="translate(-1238.000000, -374.000000)" fill="#000000" fill-rule="nonzero">
            <g id="Group-4" transform="translate(538.000000, 100.000000)">
                <g id="Group-2" transform="translate(108.000000, 256.000000)">
                    <path d="M603.733788,18.2752998 C603.563748,18.1048764 603.332894,18.0091013 603.09215,18.0091013 C602.851406,18.0091013 602.620552,18.1048764 602.450512,18.2752998 L598,22.7167104 L593.549488,18.2661985 C593.379448,18.0957751 593.148594,18 592.90785,18 C592.667106,18 592.436252,18.0957751 592.266212,18.2661985 C591.911263,18.6211473 591.911263,19.1945261 592.266212,19.549475 L596.716724,23.9999869 L592.266212,28.4504988 C591.911263,28.8054477 591.911263,29.3788265 592.266212,29.7337753 C592.62116,30.0887241 593.194539,30.0887241 593.549488,29.7337753 L598,25.2832633 L602.450512,29.7337753 C602.805461,30.0887241 603.37884,30.0887241 603.733788,29.7337753 C604.088737,29.3788265 604.088737,28.8054477 603.733788,28.4504988 L599.283276,23.9999869 L603.733788,19.549475 C604.079636,19.2036274 604.079636,18.6211473 603.733788,18.2752998 Z" id="icon/navigation/close_24px"></path>
                </g>
            </g>
        </g>
    </g>
</svg>