<svg width="10" height="6" viewBox="0 0 10 6" fill="none" xmlns="http://www.w3.org/2000/svg">
<path d="M8.29961 0.257069C8.49218 0.11264 8.73039 0.0425209 8.9705 0.059585C9.21061 0.0766491 9.43651 0.17975 9.60672 0.349962C9.77693 0.520173 9.88003 0.74607 9.89709 0.98618C9.91416 1.22629 9.84404 1.4645 9.69961 1.65707L5.69961 5.65707C5.51268 5.8403 5.26136 5.94293 4.99961 5.94293C4.73786 5.94293 4.48654 5.8403 4.29961 5.65707L0.299611 1.65707C0.155182 1.4645 0.0850624 1.22629 0.102126 0.98618C0.119191 0.74607 0.222293 0.520173 0.392504 0.349962C0.562715 0.17975 0.788612 0.0766491 1.02872 0.059585C1.26883 0.0425209 1.50704 0.11264 1.69961 0.257069L4.99961 3.54707L8.29961 0.247069V0.257069Z" fill="#0079AF"/>
</svg>
