<svg width="10" height="6" viewBox="0 0 10 6" fill="none" xmlns="http://www.w3.org/2000/svg">
<path d="M8.3001 0.25713C8.49267 0.112701 8.73088 0.042582 8.97099 0.059646C9.2111 0.0767101 9.437 0.179811 9.60721 0.350023C9.77742 0.520234 9.88052 0.746131 9.89758 0.986241C9.91465 1.22635 9.84453 1.46456 9.7001 1.65713L5.7001 5.65713C5.51317 5.84036 5.26185 5.94299 5.0001 5.94299C4.73835 5.94299 4.48703 5.84036 4.3001 5.65713L0.300099 1.65713C0.15567 1.46456 0.0855507 1.22635 0.102615 0.986241C0.119679 0.746131 0.222781 0.520234 0.392992 0.350023C0.563204 0.179811 0.7891 0.0767101 1.02921 0.059646C1.26932 0.042582 1.50753 0.112701 1.7001 0.25713L5.0001 3.54713L8.3001 0.24713V0.25713Z" fill="#001D29"/>
</svg>
