<svg width="8" height="6" viewBox="0 0 8 6" fill="none" xmlns="http://www.w3.org/2000/svg">
    <path d="M1.69471 2.28694C1.50611 2.10478 1.25351 2.00399 0.991311 2.00626C0.729114 2.00854 0.478302 2.11371 0.292894 2.29912C0.107485 2.48453 0.00231622 2.73534 3.78025e-05 2.99754C-0.00224062 3.25973 0.0985542 3.51234 0.280712 3.70094L2.28071 5.70094C2.46824 5.88841 2.72255 5.99372 2.98771 5.99372C3.25288 5.99372 3.50718 5.88841 3.69471 5.70094L7.69471 1.70094C7.87687 1.51234 7.97767 1.25973 7.97539 0.997536C7.97311 0.73534 7.86794 0.484527 7.68253 0.299119C7.49712 0.113711 7.24631 0.00854181 6.98411 0.00626339C6.72192 0.00398497 6.46932 0.10478 6.28071 0.286938L2.98771 3.57994L1.69471 2.28694Z" fill="white"/>
</svg>
