<svg width="8" height="6" viewBox="0 0 8 6" fill="none" xmlns="http://www.w3.org/2000/svg">
<path d="M7.14931 0.00033717C6.93458 0.00652151 6.7307 0.0950434 6.58085 0.247162C5.2724 1.54293 4.07777 2.8135 2.82125 4.08145L1.3441 2.91117C1.25927 2.84409 1.1619 2.79419 1.05756 2.7643C0.953207 2.73441 0.843922 2.72513 0.735942 2.73698C0.627963 2.74883 0.523402 2.78159 0.428232 2.83337C0.333063 2.88516 0.249147 2.95495 0.181278 3.03879C0.113409 3.12262 0.0629152 3.21884 0.0326802 3.32196C0.00244526 3.42508 -0.00693871 3.53307 0.00506414 3.63977C0.017067 3.74648 0.0502215 3.84979 0.102635 3.94383C0.155048 4.03787 0.225693 4.12079 0.310536 4.18785L2.37767 5.822C2.5371 5.94749 2.7378 6.01038 2.94127 5.9986C3.14475 5.98682 3.33665 5.90119 3.48015 5.75816C4.96711 4.28562 6.29927 2.83932 7.75223 1.40042C7.87089 1.28537 7.9517 1.13764 7.98412 0.976516C8.01654 0.815392 7.99907 0.648356 7.93397 0.497195C7.86888 0.346035 7.75919 0.217768 7.61922 0.129136C7.47925 0.0405033 7.31549 -0.00438057 7.14931 0.00033717Z" fill="white"/>
</svg>
