<svg width="6" height="10" viewBox="0 0 6 10" fill="none" xmlns="http://www.w3.org/2000/svg">
<path d="M0.25713 1.70002C0.112701 1.50745 0.0425816 1.26924 0.0596456 1.02913C0.0767097 0.789024 0.179811 0.563127 0.350022 0.392916C0.520234 0.222705 0.746131 0.119603 0.98624 0.102539C1.22635 0.0854749 1.46456 0.155593 1.65713 0.300022L5.65713 4.30002C5.84036 4.48695 5.94299 4.73827 5.94299 5.00002C5.94299 5.26178 5.84036 5.51309 5.65713 5.70002L1.65713 9.70002C1.46456 9.84445 1.22635 9.91457 0.986241 9.89751C0.746131 9.88044 0.520234 9.77734 0.350023 9.60713C0.179811 9.43692 0.0767101 9.21102 0.059646 8.97091C0.0425819 8.7308 0.112701 8.4926 0.25713 8.30002L3.54713 5.00002L0.247129 1.70002L0.25713 1.70002Z" fill="white"/>
</svg>
