<svg width="31" height="31" viewBox="0 0 31 31" fill="none" xmlns="http://www.w3.org/2000/svg">
<rect x="0.5" y="0.500122" width="30" height="30" rx="15" fill="#FBB13C"/>
<g clip-path="url(#clip0_1750_115076)">
<path d="M22.6067 22.5143C22.832 22.5659 23 22.7625 23 22.9978V24.5028C23 24.7773 22.7714 25 22.4895 25H8.52613C8.24424 25 8.01562 24.7773 8.01562 24.5028V22.9977C8.01562 22.7625 8.18358 22.5658 8.40897 22.5142C8.56314 19.8365 9.99101 17.3825 12.2957 15.8786L13.2592 15.25L12.2957 14.6214C9.99092 13.1176 8.56305 10.6636 8.40897 7.98584C8.18358 7.93422 8.01562 7.73758 8.01562 7.50232V5.99723C8.01562 5.7227 8.24424 5.50004 8.52613 5.50004H22.4895C22.7714 5.50004 23 5.7227 23 5.99723V7.50232C23 7.73758 22.832 7.93422 22.6067 7.98584C22.4525 10.6636 21.0246 13.1176 18.7198 14.6214L17.7563 15.25L18.7198 15.8786C21.0246 17.3825 22.4525 19.8366 22.6067 22.5143V22.5143ZM9.03663 24.0056H21.979V23.4949H9.03663V24.0056ZM21.979 6.49451H9.03663V7.00521H21.979V6.49451ZM16.555 15.6631C16.4135 15.5708 16.3286 15.4159 16.3286 15.25C16.3286 15.0841 16.4135 14.9292 16.555 14.8369L18.1516 13.7952C20.1689 12.4791 21.4265 10.3393 21.5833 7.99952H9.43235C9.58916 10.3392 10.8467 12.479 12.864 13.7952L14.4606 14.8369C14.6021 14.9292 14.687 15.0841 14.687 15.25C14.687 15.4159 14.6021 15.5708 14.4606 15.6631L12.864 16.7048C10.8467 18.021 9.58916 20.1608 9.43235 22.5005H21.5833C21.4265 20.1607 20.1689 18.021 18.1516 16.7048L16.555 15.6631V15.6631Z" fill="white"/>
<path d="M16.8392 18.1503H14.1766C13.965 18.1503 13.7752 18.0231 13.6997 17.8306C13.6241 17.6381 13.6784 17.42 13.8361 17.2826L15.1674 16.1225C15.2644 16.0381 15.3861 15.9959 15.5078 15.9959C15.6294 15.9959 15.7513 16.0381 15.8481 16.1225L17.1794 17.2826C17.3372 17.4201 17.3914 17.6381 17.3159 17.8306C17.2406 18.0231 17.0509 18.1503 16.8392 18.1503Z" fill="white"/>
<path d="M15.4863 13.3507L14.1915 12.5406C13.0594 11.802 12.3799 10.5621 12.3799 9.23497H18.8897C18.8897 10.5621 18.2102 11.802 17.0781 12.5406L15.7833 13.3507C15.6919 13.404 15.5777 13.404 15.4863 13.3507V13.3507Z" fill="white"/>
</g>
<defs>
<clipPath id="clip0_1750_115076">
<rect width="20" height="20" fill="white" transform="matrix(1 0 0 -1 5.5 25.5001)"/>
</clipPath>
</defs>
</svg>
