<svg width="30" height="30" viewBox="0 0 30 30" fill="none" xmlns="http://www.w3.org/2000/svg">
<path d="M17.4737 11.1201L28.4695 13.3043C29.3556 13.4915 29.9547 14.2404 29.9547 15.1265V27.8572C29.9547 28.8931 29.1185 29.7294 28.0826 29.7294H16.8496C17.1991 29.7294 17.4737 29.4548 17.4737 29.1053V28.4813H28.0826C28.4195 28.4813 28.7066 28.2067 28.7066 27.8572V15.1265C28.7066 14.8395 28.5069 14.5774 28.2198 14.515L17.4737 12.3932V11.1201Z" fill="black"/>
<path d="M24.339 17.248C24.6885 17.248 24.9631 17.5226 24.9631 17.8721C24.9631 18.2216 24.6885 18.4962 24.339 18.4962H21.8428C21.4933 18.4962 21.2188 18.2216 21.2188 17.8721C21.2188 17.5226 21.4933 17.248 21.8428 17.248H24.339Z" fill="black"/>
<path d="M24.339 20.9922C24.6885 20.9922 24.9631 21.2668 24.9631 21.6162C24.9631 21.9657 24.6885 22.2403 24.339 22.2403H21.8428C21.4933 22.2403 21.2188 21.9657 21.2188 21.6162C21.2188 21.2668 21.4933 20.9922 21.8428 20.9922H24.339Z" fill="black"/>
<path d="M24.339 24.7368C24.6885 24.7368 24.9631 25.0114 24.9631 25.3609C24.9631 25.7103 24.6885 25.9849 24.339 25.9849H21.8428C21.4933 25.9849 21.2188 25.7103 21.2188 25.3609C21.2188 25.0114 21.4933 24.7368 21.8428 24.7368H24.339Z" fill="black"/>
<path d="M17.4727 29.1052C17.4727 29.4546 17.1981 29.7292 16.8487 29.7292C16.4992 29.7292 16.2246 29.4546 16.2246 29.1052V28.4811V11.6317C16.2246 11.4445 16.312 11.2697 16.4493 11.1449C16.599 11.0326 16.7863 10.9827 16.9735 11.0201L17.4727 11.12V12.393V28.4811V29.1052Z" fill="black"/>
<path d="M16.2258 28.481V29.105C16.2258 29.4545 16.5004 29.7291 16.8498 29.7291H11.8574C12.2069 29.7291 12.4815 29.4545 12.4815 29.105V28.481H16.2258Z" fill="black"/>
<path d="M13.1046 6.01514C13.4541 6.01514 13.7287 6.28972 13.7287 6.63919C13.7287 6.98866 13.4541 7.26324 13.1046 7.26324H10.6084C10.259 7.26324 9.98438 6.98866 9.98438 6.63919C9.98438 6.28972 10.259 6.01514 10.6084 6.01514H13.1046Z" fill="black"/>
<path d="M13.7287 10.3833C13.7287 10.7328 13.4541 11.0074 13.1046 11.0074H10.6084C10.259 11.0074 9.98438 10.7328 9.98438 10.3833C9.98438 10.0339 10.259 9.75928 10.6084 9.75928H13.1046C13.4541 9.75928 13.7287 10.0339 13.7287 10.3833Z" fill="black"/>
<path d="M13.1046 13.5039C13.4541 13.5039 13.7287 13.7785 13.7287 14.128C13.7287 14.4774 13.4541 14.752 13.1046 14.752H10.6084C10.259 14.752 9.98438 14.4774 9.98438 14.128C9.98438 13.7785 10.259 13.5039 10.6084 13.5039H13.1046Z" fill="black"/>
<path d="M13.1046 17.248C13.4541 17.248 13.7287 17.5226 13.7287 17.8721C13.7287 18.2216 13.4541 18.4962 13.1046 18.4962H10.6084C10.259 18.4962 9.98438 18.2216 9.98438 17.8721C9.98438 17.5226 10.259 17.248 10.6084 17.248H13.1046Z" fill="black"/>
<path d="M7.48846 17.8721C7.48846 18.2216 7.21387 18.4962 6.8644 18.4962H4.36819C4.01872 18.4962 3.74414 18.2216 3.74414 17.8721C3.74414 17.5226 4.01872 17.248 4.36819 17.248H6.8644C7.21387 17.248 7.48846 17.5226 7.48846 17.8721Z" fill="black"/>
<path d="M6.8644 6.01514C7.21387 6.01514 7.48846 6.28972 7.48846 6.63919C7.48846 6.98866 7.21387 7.26324 6.8644 7.26324H4.36819C4.01872 7.26324 3.74414 6.98866 3.74414 6.63919C3.74414 6.28972 4.01872 6.01514 4.36819 6.01514H6.8644Z" fill="black"/>
<path d="M6.8644 9.75928C7.21387 9.75928 7.48846 10.0339 7.48846 10.3833C7.48846 10.7328 7.21387 11.0074 6.8644 11.0074H4.36819C4.01872 11.0074 3.74414 10.7328 3.74414 10.3833C3.74414 10.0339 4.01872 9.75928 4.36819 9.75928H6.8644Z" fill="black"/>
<path d="M6.8644 13.5039C7.21387 13.5039 7.48846 13.7785 7.48846 14.128C7.48846 14.4774 7.21387 14.752 6.8644 14.752H4.36819C4.01872 14.752 3.74414 14.4774 3.74414 14.128C3.74414 13.7785 4.01872 13.5039 4.36819 13.5039H6.8644Z" fill="black"/>
<path d="M11.2327 22.8643C11.2327 22.5149 10.9456 22.2403 10.6087 22.2403H6.86435C6.51488 22.2403 6.24029 22.5149 6.24029 22.8643V28.4808H4.99219V22.8643C4.99219 21.8284 5.82842 20.9922 6.86435 20.9922H10.6087C11.6446 20.9922 12.4808 21.8284 12.4808 22.8643V28.4808H11.2327V22.8643Z" fill="black"/>
<path d="M6.24029 28.481H11.2327H12.4808V29.105C12.4808 29.4545 12.2062 29.7291 11.8568 29.7291H5.61624C5.26677 29.7291 4.99219 29.4545 4.99219 29.105V28.481H6.24029Z" fill="black"/>
<path d="M2.18418 0.0242993L15.9009 2.10863C16.812 2.25841 17.4735 3.03223 17.4735 3.95583V11.12L16.9742 11.0201C16.787 10.9827 16.5998 11.0326 16.45 11.1449C16.3127 11.2697 16.2254 11.4445 16.2254 11.6317V3.95583C16.2254 3.6438 16.0007 3.3817 15.7012 3.33178L1.98449 1.25992C1.94704 1.24744 1.9096 1.24744 1.87216 1.24744C1.72239 1.24744 1.58509 1.29737 1.47276 1.39722C1.32299 1.52203 1.24811 1.68428 1.24811 1.87149V27.857C1.24811 28.2065 1.53517 28.4811 1.87216 28.4811H4.99242V29.1052C4.99242 29.4546 5.267 29.7292 5.61647 29.7292H1.87216C0.836231 29.7292 0 28.893 0 27.857V1.87149C0 1.32233 0.23714 0.798125 0.661496 0.448655C1.08585 0.0867046 1.63502 -0.063068 2.18418 0.0242993Z" fill="black"/>
</svg>
