<svg width="20" height="20" viewBox="0 0 20 20" fill="none" xmlns="http://www.w3.org/2000/svg">
<path d="M2.62131 19.7696H16.4161C17.8622 19.7696 19.0374 18.5944 19.0374 17.1483V4.08569C19.0374 2.63959 17.8622 1.46439 16.4161 1.46439H15.3764V0.732193C15.3764 0.329475 15.0468 0 14.6441 0C14.2414 0 13.9119 0.329475 13.9119 0.732193V1.46439H5.12547V0.732193C5.12547 0.329475 4.79594 0 4.39322 0C3.9905 0 3.66103 0.329475 3.66103 0.732193V1.46439H2.62131C1.1752 1.46439 0 2.63959 0 4.08569V17.1483C0 18.5944 1.1752 19.7696 2.62131 19.7696ZM1.46445 4.08569C1.46445 3.44869 1.98431 2.92883 2.62131 2.92883H3.66103V3.66103C3.66103 4.06374 3.9905 4.39322 4.39322 4.39322C4.79594 4.39322 5.12541 4.06374 5.12541 3.66103V2.92883H13.9119V3.66103C13.9119 4.06374 14.2414 4.39322 14.6441 4.39322C15.0468 4.39322 15.3763 4.06374 15.3763 3.66103V2.92883H16.416C17.053 2.92883 17.5729 3.44869 17.5729 4.08569V17.1483C17.5729 17.7853 17.053 18.3051 16.416 18.3051H2.62131C1.98431 18.3051 1.46445 17.7853 1.46445 17.1483V4.08569Z" fill="black"/>
<path d="M5.30855 8.42033C5.81403 8.42033 6.22379 8.01056 6.22379 7.50508C6.22379 6.99961 5.81403 6.58984 5.30855 6.58984C4.80308 6.58984 4.39331 6.99961 4.39331 7.50508C4.39331 8.01056 4.80308 8.42033 5.30855 8.42033Z" fill="black"/>
<path d="M9.33565 8.42033C9.84113 8.42033 10.2509 8.01056 10.2509 7.50508C10.2509 6.99961 9.84113 6.58984 9.33565 6.58984C8.83018 6.58984 8.42041 6.99961 8.42041 7.50508C8.42041 8.01056 8.83018 8.42033 9.33565 8.42033Z" fill="black"/>
<path d="M13.3628 8.42033C13.8682 8.42033 14.278 8.01056 14.278 7.50508C14.278 6.99961 13.8682 6.58984 13.3628 6.58984C12.8573 6.58984 12.4475 6.99961 12.4475 7.50508C12.4475 8.01056 12.8573 8.42033 13.3628 8.42033Z" fill="black"/>
<path d="M5.30855 12.0815C5.81403 12.0815 6.22379 11.6717 6.22379 11.1662C6.22379 10.6607 5.81403 10.251 5.30855 10.251C4.80308 10.251 4.39331 10.6607 4.39331 11.1662C4.39331 11.6717 4.80308 12.0815 5.30855 12.0815Z" fill="black"/>
<path d="M9.33565 12.0815C9.84113 12.0815 10.2509 11.6717 10.2509 11.1662C10.2509 10.6607 9.84113 10.251 9.33565 10.251C8.83018 10.251 8.42041 10.6607 8.42041 11.1662C8.42041 11.6717 8.83018 12.0815 9.33565 12.0815Z" fill="black"/>
<path d="M13.3628 12.0815C13.8682 12.0815 14.278 11.6717 14.278 11.1662C14.278 10.6607 13.8682 10.251 13.3628 10.251C12.8573 10.251 12.4475 10.6607 12.4475 11.1662C12.4475 11.6717 12.8573 12.0815 13.3628 12.0815Z" fill="black"/>
<path d="M5.30855 15.7426C5.81403 15.7426 6.22379 15.3328 6.22379 14.8274C6.22379 14.3219 5.81403 13.9121 5.30855 13.9121C4.80308 13.9121 4.39331 14.3219 4.39331 14.8274C4.39331 15.3328 4.80308 15.7426 5.30855 15.7426Z" fill="black"/>
<path d="M9.33565 15.7426C9.84113 15.7426 10.2509 15.3328 10.2509 14.8274C10.2509 14.3219 9.84113 13.9121 9.33565 13.9121C8.83018 13.9121 8.42041 14.3219 8.42041 14.8274C8.42041 15.3328 8.83018 15.7426 9.33565 15.7426Z" fill="black"/>
<path d="M13.3628 15.7426C13.8682 15.7426 14.278 15.3328 14.278 14.8274C14.278 14.3219 13.8682 13.9121 13.3628 13.9121C12.8573 13.9121 12.4475 14.3219 12.4475 14.8274C12.4475 15.3328 12.8573 15.7426 13.3628 15.7426Z" fill="black"/>
</svg>
