<?xml version="1.0" encoding="utf-8"?>
<!-- Generator: Adobe Illustrator 18.1.1, SVG Export Plug-In . SVG Version: 6.00 Build 0)  -->
<svg version="1.1" id="Layer_1" xmlns="http://www.w3.org/2000/svg" xmlns:xlink="http://www.w3.org/1999/xlink" x="0px" y="0px"
	 viewBox="0 0 573 91.2" enable-background="new 0 0 573 91.2" xml:space="preserve">
<g>
	<defs>
		<path id="SVGID_1_" d="M203.3,0c20.3,0,36.8,16.5,36.8,36.8c0,27.8-30.7,39.1-36.8,54.4c-7.8-15.4-36.8-28.9-36.8-54.4
			C166.6,16.5,183,0,203.3,0z"/>
	</defs>
	<use xlink:href="#SVGID_1_"  overflow="visible" fill-rule="evenodd" clip-rule="evenodd" fill="#0079AF"/>
	<clipPath id="SVGID_2_">
		<use xlink:href="#SVGID_1_"  overflow="visible"/>
	</clipPath>
	<polygon opacity="0.25" clip-path="url(#SVGID_2_)" fill="#231F20" points="223.7,54 191.7,86 156.2,50.5 182.9,23.8 188.2,32.5 
		197,23.8 207.5,34.3 218,23.8 	"/>
</g>
<g>
	<path fill="#231F20" d="M5.7,81.1c-2.2,0-4.1-0.2-5.7-0.7v-8C1.7,72.8,3.2,73,4.5,73c2.1,0,3.6-0.7,4.5-2c0.9-1.3,1.4-3.4,1.4-6.2
		V22.3h9.6v42.5c0,5.3-1.2,9.3-3.6,12.1C14,79.7,10.4,81.1,5.7,81.1z"/>
	<path fill="#231F20" d="M72.7,44.9c0,7.5-1.9,13.3-5.6,17.3c-3.7,4-9.1,6.1-16,6.1s-12.3-2-16-6.1c-3.7-4-5.6-9.8-5.6-17.4
		c0-7.6,1.9-13.3,5.6-17.3c3.7-4,9.1-6,16.1-6c7,0,12.3,2,16,6C70.9,31.6,72.7,37.4,72.7,44.9z M39.6,44.9c0,5.1,1,8.9,2.9,11.5
		s4.8,3.9,8.6,3.9c7.7,0,11.5-5.1,11.5-15.3c0-10.2-3.8-15.3-11.5-15.3c-3.8,0-6.7,1.3-8.7,3.9C40.6,36,39.6,39.9,39.6,44.9z"/>
	<path fill="#231F20" d="M82.1,22.3h14.1c6.4,0,11.1,0.9,14,2.7c2.9,1.8,4.4,4.7,4.4,8.7c0,2.7-0.6,4.9-1.9,6.7
		c-1.3,1.7-3,2.8-5.1,3.1v0.3c2.9,0.6,5,1.8,6.2,3.6c1.3,1.8,1.9,4.1,1.9,7c0,4.1-1.5,7.4-4.5,9.7c-3,2.3-7.1,3.5-12.2,3.5h-17V22.3
		z M91.8,40.3h5.6c2.6,0,4.5-0.4,5.7-1.2c1.2-0.8,1.8-2.1,1.8-4c0-1.7-0.6-3-1.9-3.7c-1.3-0.8-3.3-1.1-6-1.1h-5.1V40.3z M91.8,47.9
		v11.8H98c2.7,0,4.6-0.5,5.9-1.5s1.9-2.6,1.9-4.7c0-3.8-2.7-5.7-8.1-5.7H91.8z"/>
	<path fill="#231F20" d="M151.7,55.1c0,4.1-1.5,7.3-4.4,9.7c-3,2.4-7.1,3.5-12.3,3.5c-4.8,0-9.1-0.9-12.9-2.7v-8.9
		c3.1,1.4,5.7,2.3,7.8,2.9c2.1,0.6,4.1,0.8,5.8,0.8c2.1,0,3.7-0.4,4.9-1.2c1.1-0.8,1.7-2,1.7-3.6c0-0.9-0.2-1.7-0.7-2.4
		c-0.5-0.7-1.2-1.4-2.2-2c-1-0.6-2.9-1.7-5.9-3.1c-2.8-1.3-4.9-2.6-6.2-3.8s-2.5-2.6-3.3-4.2c-0.8-1.6-1.2-3.5-1.2-5.6
		c0-4,1.4-7.2,4.1-9.5c2.7-2.3,6.5-3.4,11.3-3.4c2.4,0,4.6,0.3,6.8,0.8c2.1,0.6,4.4,1.3,6.7,2.4l-3.1,7.5c-2.4-1-4.4-1.7-6-2.1
		c-1.6-0.4-3.1-0.6-4.7-0.6c-1.8,0-3.2,0.4-4.2,1.3c-1,0.8-1.5,2-1.5,3.3c0,0.8,0.2,1.6,0.6,2.2c0.4,0.6,1,1.2,1.9,1.8
		s2.9,1.7,6.1,3.2c4.2,2,7.2,4.1,8.7,6.1C150.9,49.6,151.7,52.1,151.7,55.1z"/>
</g>
<g>
	<path fill="#FFFFFF" d="M182.9,54V23.8h6.4V54H182.9z"/>
	<path fill="#FFFFFF" d="M223.7,54h-8.1l-13.1-22.8h-0.2c0.3,4,0.4,6.9,0.4,8.6V54h-5.7V23.8h8.1l13.1,22.6h0.1
		c-0.2-3.9-0.3-6.7-0.3-8.3V23.8h5.8V54z"/>
</g>
<g>
	<path fill="#231F20" d="M298.3,67.7H286l-19.9-34.6h-0.3c0.4,6.1,0.6,10.5,0.6,13.1v21.5h-8.7V22H270l19.8,34.2h0.2
		c-0.3-5.9-0.5-10.1-0.5-12.6V22h8.7V67.7z"/>
	<path fill="#231F20" d="M335.8,67.7h-26.3V22h26.3V30h-16.6v10h15.5v7.9h-15.5v11.8h16.6V67.7z"/>
	<path fill="#231F20" d="M362.7,67.7H353V30.1h-12.4V22h34.5v8.1h-12.4V67.7z"/>
	<path fill="#231F20" d="M426.4,67.7h-11l-6.2-24c-0.2-0.9-0.6-2.6-1.2-5.3c-0.6-2.7-0.9-4.5-1-5.4c-0.1,1.1-0.4,2.9-0.9,5.4
		c-0.5,2.5-0.9,4.3-1.2,5.3l-6.2,23.9h-11L376.2,22h9.5l5.8,24.9c1,4.6,1.8,8.6,2.2,12c0.1-1.2,0.4-3,0.9-5.5
		c0.4-2.5,0.9-4.4,1.3-5.8l6.7-25.6h9.2l6.7,25.6c0.3,1.1,0.7,2.9,1.1,5.3c0.4,2.4,0.8,4.4,1,6.1c0.2-1.6,0.5-3.7,1-6.1
		c0.5-2.4,0.9-4.4,1.3-5.9l5.8-24.9h9.5L426.4,67.7z"/>
	<path fill="#231F20" d="M485,44.8c0,7.6-1.9,13.4-5.6,17.4s-9.1,6.1-16.1,6.1s-12.4-2-16.1-6.1s-5.6-9.9-5.6-17.5
		c0-7.6,1.9-13.4,5.6-17.4c3.8-4,9.2-6,16.2-6c7,0,12.4,2,16.1,6.1C483.1,31.4,485,37.2,485,44.8z M451.7,44.8c0,5.1,1,8.9,2.9,11.5
		c1.9,2.6,4.8,3.9,8.7,3.9c7.7,0,11.6-5.1,11.6-15.4c0-10.3-3.8-15.4-11.5-15.4c-3.9,0-6.8,1.3-8.7,3.9
		C452.6,35.9,451.7,39.7,451.7,44.8z"/>
	<path fill="#231F20" d="M503.9,50.2v17.5h-9.7V22h13.3c6.2,0,10.8,1.1,13.8,3.4c3,2.3,4.5,5.7,4.5,10.3c0,2.7-0.7,5.1-2.2,7.2
		c-1.5,2.1-3.6,3.7-6.3,4.9c6.9,10.3,11.4,16.9,13.4,19.9H520l-10.9-17.5H503.9z M503.9,42.3h3.1c3.1,0,5.3-0.5,6.8-1.5
		c1.5-1,2.2-2.6,2.2-4.8c0-2.2-0.7-3.7-2.2-4.6c-1.5-0.9-3.8-1.4-6.9-1.4h-2.9V42.3z"/>
	<path fill="#231F20" d="M573,67.7h-11l-12-19.3l-4.1,2.9v16.3h-9.7V22h9.7v20.9l3.8-5.4L562.1,22h10.8l-15.9,20.2L573,67.7z"/>
</g>
</svg>
